<!-- Generated by IcoMoon.io -->
<svg version="1.1" xmlns="http://www.w3.org/2000/svg" width="32" height="32" viewBox="0 0 32 32">
<title>interface-arrows-button-right</title>
<path d="M8.754 0c-0.296 0.015-0.56 0.14-0.754 0.335l-0 0c-0.207 0.207-0.335 0.492-0.335 0.808s0.128 0.601 0.335 0.808l14.049 14.049-14.049 14.049c-0.207 0.207-0.335 0.492-0.335 0.808s0.128 0.601 0.335 0.808v0c0.207 0.207 0.492 0.335 0.808 0.335s0.601-0.128 0.808-0.335l14.049-14.049c0.886-0.883 0.886-2.349 0-3.232l-14.049-14.049c-0.207-0.208-0.493-0.336-0.809-0.336-0.018 0-0.037 0-0.055 0.001l0.003-0z"></path>
</svg>
