<!-- Generated by IcoMoon.io -->
<svg version="1.1" xmlns="http://www.w3.org/2000/svg" width="32" height="32" viewBox="0 0 32 32">
<title>interface-search</title>
<path d="M13.527 0c-7.456 0-13.527 6.071-13.527 13.527s6.071 13.522 13.527 13.522c7.456 0 13.522-6.066 13.522-13.522s-6.066-13.527-13.522-13.527zM13.527 2.286c6.221 0 11.237 5.021 11.237 11.241s-5.016 11.237-11.237 11.237c-6.221 0-11.241-5.016-11.241-11.237s5.021-11.241 11.241-11.241z"></path>
<path d="M22.223 21.138c-0.295 0.013-0.56 0.137-0.755 0.33l0-0c-0.207 0.207-0.335 0.492-0.335 0.808s0.128 0.601 0.335 0.808l8.58 8.58c0.207 0.207 0.492 0.335 0.808 0.335s0.601-0.128 0.808-0.335v0c0.207-0.207 0.335-0.492 0.335-0.808s-0.128-0.601-0.335-0.808l-8.58-8.58c-0.206-0.205-0.491-0.332-0.805-0.332-0.020 0-0.040 0-0.059 0.002l0.003-0z"></path>
</svg>
