<!-- Generated by IcoMoon.io -->
<svg version="1.1" xmlns="http://www.w3.org/2000/svg" width="32" height="32" viewBox="0 0 32 32">
<title>interface-setting-menu-1</title>
<path d="M1.143 3.429c-0.631 0-1.143 0.512-1.143 1.143v0c0 0.631 0.512 1.143 1.143 1.143v0h29.714c0.631 0 1.143-0.512 1.143-1.143v0c0-0.631-0.512-1.143-1.143-1.143v0h-29.714z"></path>
<path d="M1.143 14.857c-0.631 0-1.143 0.512-1.143 1.143v0c0 0.631 0.512 1.143 1.143 1.143v0h29.714c0.631 0 1.143-0.512 1.143-1.143v0c0-0.631-0.512-1.143-1.143-1.143v0h-29.714z"></path>
<path d="M1.143 26.286c-0.631 0-1.143 0.512-1.143 1.143v0c0 0.631 0.512 1.143 1.143 1.143v0h29.714c0.631 0 1.143-0.512 1.143-1.143v0c0-0.631-0.512-1.143-1.143-1.143v0h-29.714z"></path>
</svg>
