<!-- Generated by IcoMoon.io -->
<svg version="1.1" xmlns="http://www.w3.org/2000/svg" width="32" height="32" viewBox="0 0 32 32">
<title>interface-home-3</title>
<path d="M15.946 0c-0.296 0.015-0.56 0.14-0.754 0.335l-14.857 14.857c-0.207 0.207-0.335 0.492-0.335 0.808s0.128 0.601 0.335 0.808v0c0.207 0.207 0.492 0.335 0.808 0.335s0.601-0.128 0.808-0.335l14.049-14.049 14.049 14.049c0.207 0.207 0.492 0.335 0.808 0.335s0.601-0.128 0.808-0.335v0c0.207-0.207 0.335-0.492 0.335-0.808s-0.128-0.601-0.335-0.808l-14.857-14.857c-0.207-0.208-0.493-0.336-0.809-0.336-0.018 0-0.037 0-0.055 0.001l0.003-0z"></path>
<path d="M5.714 18.286c-0.631 0-1.143 0.512-1.143 1.143v0 11.429c0 0.631 0.512 1.143 1.143 1.143h20.571c0.631-0 1.143-0.512 1.143-1.143v0-11.429c0-0.631-0.512-1.143-1.143-1.143v0c-0.631 0-1.143 0.512-1.143 1.143v0 10.286h-18.286v-10.286c0-0.631-0.512-1.143-1.143-1.143v0z"></path>
</svg>
