<!-- Generated by IcoMoon.io -->
<svg version="1.1" xmlns="http://www.w3.org/2000/svg" width="32" height="32" viewBox="0 0 32 32">
<title>money-graph-bar</title>
<path d="M1.143 29.714c-0.631 0-1.143 0.512-1.143 1.143v0c0 0.631 0.512 1.143 1.143 1.143v0h29.714c0.631 0 1.143-0.512 1.143-1.143v0c0-0.631-0.512-1.143-1.143-1.143v0h-29.714z"></path>
<path d="M1.143 0c-0.631 0-1.143 0.512-1.143 1.143v0 29.714c0 0.631 0.512 1.143 1.143 1.143h9.143c0.631-0 1.143-0.512 1.143-1.143v0-29.714c-0-0.631-0.512-1.143-1.143-1.143h-9.143zM2.286 2.286h6.857v27.429h-6.857v-27.429z"></path>
<path d="M10.286 13.714c-0.631 0-1.143 0.512-1.143 1.143v0 16c0 0.631 0.512 1.143 1.143 1.143h9.143c0.631-0 1.143-0.512 1.143-1.143v0-16c-0-0.631-0.512-1.143-1.143-1.143h-9.143zM11.429 16h6.857v13.714h-6.857v-13.714z"></path>
<path d="M19.429 6.857c-0.631 0-1.143 0.512-1.143 1.143v0 22.857c0 0.631 0.512 1.143 1.143 1.143h9.143c0.631-0 1.143-0.512 1.143-1.143v0-22.857c-0-0.631-0.512-1.143-1.143-1.143h-9.143zM20.571 9.143h6.857v20.571h-6.857v-20.571z"></path>
</svg>
