<!-- Generated by IcoMoon.io -->
<svg version="1.1" xmlns="http://www.w3.org/2000/svg" width="32" height="32" viewBox="0 0 32 32">
<title>travel-map-flag</title>
<path d="M5.714 0c-0.631 0-1.143 0.512-1.143 1.143v0 29.714c0 0.631 0.512 1.143 1.143 1.143v0c0.631 0 1.143-0.512 1.143-1.143v0-29.714c0-0.631-0.512-1.143-1.143-1.143v0z"></path>
<path d="M5.714 0c-0.631 0-1.143 0.512-1.143 1.143v0 16c0 0.631 0.512 1.143 1.143 1.143h20.571c0.631-0 1.143-0.512 1.143-1.143 0-0.285-0.105-0.547-0.278-0.747l0.001 0.001-6.219-7.254 6.219-7.254c0.172-0.199 0.277-0.46 0.277-0.745 0-0.631-0.512-1.143-1.143-1.143h-20.571zM6.857 2.286h16.942l-5.237 6.112c-0.172 0.199-0.277 0.46-0.277 0.746s0.105 0.547 0.278 0.747l-0.001-0.001 5.237 6.112h-16.942v-13.714z"></path>
</svg>
